<?xml version="1.0" encoding="iso-8859-1"?>
<!-- Uploaded to: SVG Repo, www.svgrepo.com, Generator: SVG Repo Mixer Tools -->
<svg version="1.1" id="Layer_1" xmlns="http://www.w3.org/2000/svg" xmlns:xlink="http://www.w3.org/1999/xlink" 
	 viewBox="0 0 512 512" xml:space="preserve">
<rect x="10.199" y="440.606" style="fill:#EDDABF;" width="491.602" height="50.996"/>
<rect x="10.199" y="157.068" style="fill:#CCD9CD;" width="491.602" height="283.538"/>
<rect x="10.199" y="20.398" style="fill:#EDDABF;" width="491.602" height="136.669"/>
<g>
	<path style="fill:#570029;" d="M0,491.602c0,5.632,4.567,10.199,10.199,10.199h491.602c5.632,0,10.199-4.567,10.199-10.199V20.398
		c0-5.632-4.567-10.199-10.199-10.199H10.199C4.567,10.199,0,14.766,0,20.398V491.602z M491.602,146.869H20.398V124.43h471.203
		V146.869z M20.398,167.267h471.203v263.139H20.398V167.267z M491.602,30.598v73.434H20.398V30.598H491.602z M491.602,481.402
		H20.398v-30.598h471.203V481.402z"/>
	<path style="fill:#570029;" d="M105.562,94.853c15.185,0,27.538-12.353,27.538-27.538s-12.353-27.538-27.538-27.538
		S78.024,52.13,78.024,67.315S90.377,94.853,105.562,94.853z M105.562,60.175c3.936,0,7.139,3.204,7.139,7.139
		s-3.204,7.139-7.139,7.139c-3.936,0-7.139-3.204-7.139-7.139S101.626,60.175,105.562,60.175z"/>
	<path style="fill:#570029;" d="M205.514,94.853c15.185,0,27.538-12.353,27.538-27.538s-12.353-27.538-27.538-27.538
		c-15.185,0-27.538,12.353-27.538,27.538S190.329,94.853,205.514,94.853z M205.514,60.175c3.936,0,7.139,3.204,7.139,7.139
		s-3.204,7.139-7.139,7.139s-7.139-3.204-7.139-7.139S201.578,60.175,205.514,60.175z"/>
	<path style="fill:#570029;" d="M306.486,94.853c15.185,0,27.538-12.353,27.538-27.538s-12.353-27.538-27.538-27.538
		c-15.185,0-27.538,12.353-27.538,27.538S291.301,94.853,306.486,94.853z M306.486,60.175c3.936,0,7.139,3.204,7.139,7.139
		s-3.204,7.139-7.139,7.139s-7.139-3.204-7.139-7.139S302.55,60.175,306.486,60.175z"/>
	<path style="fill:#570029;" d="M406.438,94.853c15.185,0,27.538-12.353,27.538-27.538s-12.353-27.538-27.538-27.538
		S378.9,52.13,378.9,67.315S391.254,94.853,406.438,94.853z M406.438,60.175c3.936,0,7.139,3.204,7.139,7.139
		s-3.204,7.139-7.139,7.139s-7.139-3.204-7.139-7.139S402.502,60.175,406.438,60.175z"/>
	<path style="fill:#570029;" d="M329.434,182.566H182.566c-5.632,0-10.199,4.567-10.199,10.199c0,5.632,4.567,10.199,10.199,10.199
		h146.869c5.632,0,10.199-4.567,10.199-10.199C339.633,187.133,335.066,182.566,329.434,182.566z"/>
	<path style="fill:#570029;" d="M91.793,396.749H44.876c-5.632,0-10.199,4.567-10.199,10.199c0,5.632,4.567,10.199,10.199,10.199
		h46.916c5.632,0,10.199-4.567,10.199-10.199C101.992,401.316,97.425,396.749,91.793,396.749z"/>
	<path style="fill:#570029;" d="M128.51,396.749h-6.12c-5.632,0-10.199,4.567-10.199,10.199c0,5.632,4.567,10.199,10.199,10.199
		h6.12c5.632,0,10.199-4.567,10.199-10.199C138.709,401.316,134.142,396.749,128.51,396.749z"/>
</g>
</svg>