<?xml version="1.0" encoding="iso-8859-1"?>
<!-- Uploaded to: SVG Repo, www.svgrepo.com, Generator: SVG Repo Mixer Tools -->
<svg height="800px" width="800px" version="1.1" id="Layer_1" xmlns="http://www.w3.org/2000/svg" xmlns:xlink="http://www.w3.org/1999/xlink" 
	 viewBox="0 0 512 512" xml:space="preserve">
<path style="fill:#EC5565;" d="M512,256.006C512,397.402,397.394,512.004,256.004,512C114.606,512.004,0,397.402,0,256.006
	C-0.007,114.61,114.606,0,256.004,0C397.394,0,512,114.614,512,256.006z"/>
<path style="fill:#D94453;" d="M512,256.005c0-11.941-0.883-23.671-2.466-35.18c-0.071-0.06-0.146-0.116-0.213-0.182
	c-0.247-0.253-108.673-108.79-108.923-109.04c-64.436-64.43-196.124-32.703-266.423,37.595
	c-34.089,34.089-54.337,77.993-57.021,123.623c-2.706,45.959,12.703,88.163,43.386,118.839
	c0.259,0.258,119.169,119.093,119.429,119.351c0.143,0.144,0.273,0.3,0.406,0.453c5.239,0.319,10.508,0.533,15.829,0.533
	C397.394,512.004,512,397.401,512,256.005z"/>
<path style="fill:#F4F6F9;" d="M400.397,111.603C335.961,47.174,204.273,78.9,133.974,149.199
	c-34.089,34.089-54.337,77.991-57.021,123.622c-2.705,45.959,12.702,88.163,43.386,118.839
	c28.372,28.379,66.609,43.692,108.558,43.692c3.405,0,6.839-0.102,10.282-0.306c45.631-2.684,89.534-22.932,123.622-57.021
	C433.093,307.727,464.827,176.032,400.397,111.603z M389.839,122.161c46.097,46.097,35.282,134.673-3.79,201.026
	c-4.636-6.255-3.739-13.663-1.905-24.545c2.07-12.213,4.638-27.424-8.13-39.987c-12.702-12.491-28.051-9.989-40.396-7.948
	c-12.542,2.057-20.577,2.967-27.526-3.865c-6.854-6.752-5.935-14.591-3.865-26.833c2.07-12.213,4.644-27.417-8.115-39.973
	c-12.673-12.476-28.029-9.953-40.374-7.919c-12.519,2.049-20.562,2.975-27.483-3.836c-6.854-6.745-5.929-14.591-3.857-26.819
	c1.649-9.729,3.487-21.327-2.217-31.995c27.417-11.17,56.544-17.596,83.818-17.596C338.702,91.872,368.737,101.059,389.839,122.161z
	 M274.083,413.868c-0.342-0.173-0.615-0.435-0.992-0.558C130.249,367.001,99.156,240.789,98.858,239.52
	c-0.139-0.593-0.465-1.073-0.73-1.594c6.867-24.046,18.995-46.814,35.895-66.714c16.816,32.729,81.543,144.682,206.754,206.768
	C320.883,394.879,298.123,407.001,274.083,413.868z M238.303,420.142c-41.548,2.414-79.778-11.411-107.406-39.04
	c-27.621-27.621-41.483-65.763-39.04-107.406c0.134-2.277,0.5-4.526,0.73-6.794c15.764,38.314,57.601,112.943,153.662,152.386
	C243.6,419.575,240.966,419.986,238.303,420.142z M352.565,367.131C221.698,304.553,155.79,181.424,144.863,159.445
	c17.607-17.523,39.667-32.559,63.609-43.969c3.818,6.034,2.951,13.201,1.205,23.485c-2.07,12.213-4.644,27.409,8.109,39.966
	c12.673,12.483,28.029,9.953,40.374,7.919c12.527-2.049,20.562-2.975,27.483,3.836c6.862,6.752,5.942,14.598,3.865,26.833
	c-2.07,12.213-4.644,27.417,8.115,39.973c12.688,12.491,28.066,9.975,40.411,7.955c12.549-2.049,20.585-2.96,27.511,3.857
	c6.868,6.759,5.95,14.612,3.879,26.855c-2.064,12.221-4.638,27.424,8.13,39.98c0.065,0.064,0.153,0.082,0.219,0.144
	C370.146,347.524,361.706,357.945,352.565,367.131z"/>
</svg>